<svg width="235" height="159" viewBox="0 0 235 159" fill="none" xmlns="http://www.w3.org/2000/svg">
<path opacity="0.1" fill-rule="evenodd" clip-rule="evenodd" d="M212.996 89.6095C210.082 50.9185 141.825 19.8362 69.1191 21.9838C-3.58729 24.1315 69.5828 68.4843 24.6873 68.5468C-20.2083 68.6093 48.7434 136.582 126.825 124.209C204.908 111.837 215.909 128.301 212.996 89.6095Z" fill="#02ECF1"/>
<path fill-rule="evenodd" clip-rule="evenodd" d="M140.015 96.9563C139.991 97.0644 139.952 97.1745 139.92 97.2815C139.954 97.1673 139.992 97.0541 140.016 96.9378C140.015 96.945 140.015 96.9502 140.015 96.9563ZM139.769 97.7497C139.726 97.8547 139.668 97.9596 139.617 98.0625C139.67 97.9544 139.729 97.8454 139.774 97.7343C139.772 97.7394 139.77 97.7446 139.769 97.7497ZM139.363 98.5398C139.303 98.6365 139.23 98.7301 139.164 98.8248C139.234 98.7281 139.308 98.6283 139.369 98.5264C139.367 98.5316 139.366 98.5357 139.363 98.5398ZM138.759 99.3549C138.697 99.4279 138.627 99.4999 138.56 99.5709C138.63 99.4969 138.702 99.4218 138.765 99.3456C138.763 99.3487 138.762 99.3508 138.759 99.3549ZM138.22 99.9351C138.094 100.055 137.944 100.172 137.804 100.29C137.948 100.169 138.1 100.049 138.229 99.9248C138.225 99.9289 138.224 99.9309 138.22 99.9351ZM137.028 100.886C136.971 100.926 136.916 100.965 136.858 101.006C136.918 100.964 136.976 100.921 137.035 100.881C137.032 100.882 137.03 100.884 137.028 100.886ZM140.075 96.4885C140.295 94.2312 138.711 91.9348 135.288 90.2126C128.879 86.9851 118.528 86.9851 112.165 90.2084C108.995 91.8155 107.414 93.9205 107.418 96.0275C107.418 96.0203 107.415 96.0131 107.415 96.007L107.406 98.9217C107.4 101.05 109.01 103.183 112.237 104.808C112.622 105 113.023 105.182 113.435 105.354C113.575 105.409 113.722 105.462 113.866 105.516C114.108 105.61 114.346 105.708 114.595 105.793C114.623 105.804 114.655 105.81 114.683 105.819C115.252 106.012 115.84 106.183 116.443 106.338C116.489 106.35 116.533 106.366 116.58 106.378C116.714 106.411 116.855 106.434 116.989 106.465C117.329 106.543 117.67 106.618 118.017 106.684C118.106 106.702 118.194 106.725 118.285 106.742C118.418 106.766 118.556 106.782 118.69 106.803C118.978 106.851 119.268 106.896 119.56 106.936C119.677 106.952 119.789 106.973 119.905 106.988C120.033 107.004 120.163 107.011 120.29 107.026C120.56 107.055 120.83 107.081 121.103 107.105C121.235 107.116 121.363 107.134 121.496 107.144C121.618 107.151 121.742 107.152 121.865 107.161C122.138 107.177 122.411 107.188 122.686 107.199C122.826 107.204 122.965 107.216 123.106 107.218C123.218 107.221 123.329 107.216 123.441 107.217C123.74 107.221 124.038 107.218 124.336 107.212C124.485 107.211 124.632 107.216 124.781 107.211C124.867 107.209 124.953 107.199 125.042 107.196C125.411 107.181 125.779 107.159 126.147 107.133C126.295 107.121 126.445 107.118 126.594 107.106C126.64 107.102 126.685 107.095 126.731 107.091C127.357 107.032 127.976 106.959 128.586 106.863C128.617 106.859 128.649 106.857 128.68 106.852C128.858 106.825 129.03 106.785 129.206 106.753C129.509 106.7 129.812 106.649 130.109 106.585C130.325 106.54 130.536 106.487 130.75 106.435C131.033 106.367 131.316 106.301 131.592 106.225C131.652 106.209 131.715 106.197 131.775 106.181C131.874 106.152 131.965 106.113 132.064 106.085C132.503 105.955 132.932 105.813 133.35 105.66C133.504 105.603 133.66 105.547 133.811 105.488C134.344 105.277 134.864 105.055 135.354 104.808C135.421 104.774 135.488 104.739 135.553 104.705C135.701 104.628 135.827 104.543 135.966 104.465C136.169 104.351 136.375 104.237 136.563 104.116C136.725 104.014 136.869 103.907 137.02 103.802C137.191 103.682 137.366 103.564 137.522 103.44C137.554 103.415 137.593 103.393 137.623 103.367C137.833 103.197 138.027 103.025 138.211 102.851C138.249 102.814 138.281 102.779 138.317 102.743C138.426 102.636 138.538 102.527 138.637 102.418C138.68 102.369 138.709 102.319 138.75 102.272C138.89 102.107 139.014 101.942 139.133 101.776C139.183 101.704 139.249 101.637 139.295 101.565C139.317 101.529 139.33 101.493 139.353 101.457C139.444 101.31 139.518 101.16 139.592 101.011C139.636 100.925 139.694 100.84 139.73 100.754C139.743 100.725 139.747 100.696 139.759 100.668C139.818 100.526 139.858 100.381 139.9 100.237C139.928 100.141 139.972 100.048 139.995 99.9525C140 99.9268 139.998 99.9011 140.005 99.8764C140.037 99.7241 140.049 99.5729 140.064 99.4217C140.074 99.325 140.098 99.2293 140.102 99.1336C140.103 99.0945 140.104 99.0544 140.104 99.0153C140.104 99.0122 140.104 99.0112 140.104 99.0091C140.107 98.0369 140.11 97.0636 140.113 96.0924C140.113 96.224 140.088 96.3557 140.075 96.4885Z" fill="#250F8A"/>
<mask id="mask0" mask-type="alpha" maskUnits="userSpaceOnUse" x="107" y="95" width="33" height="12">
<path fill-rule="evenodd" clip-rule="evenodd" d="M107.228 98.3828C107.221 100.527 108.803 102.673 111.97 104.31C118.259 107.558 128.423 107.558 134.67 104.31C137.773 102.696 139.327 100.585 139.333 98.4698C139.335 97.4907 139.34 96.5115 139.342 95.5324C139.335 97.6471 137.782 99.7598 134.679 101.371C128.431 104.619 118.267 104.619 111.98 101.371C108.811 99.737 107.23 97.5891 107.236 95.4474" fill="white"/>
</mask>
<g mask="url(#mask0)">
<path fill-rule="evenodd" clip-rule="evenodd" d="M139.342 95.5364L139.333 98.4739C139.333 98.5153 139.332 98.5568 139.331 98.5992L139.341 95.6628C139.341 95.6203 139.342 95.5778 139.342 95.5364Z" fill="#872D24"/>
</g>
<mask id="mask1" mask-type="alpha" maskUnits="userSpaceOnUse" x="107" y="95" width="33" height="12">
<path fill-rule="evenodd" clip-rule="evenodd" d="M107.228 98.3828C107.221 100.527 108.803 102.673 111.97 104.31C118.259 107.558 128.423 107.558 134.67 104.31C137.773 102.696 139.327 100.585 139.333 98.4698C139.335 97.4907 139.34 96.5115 139.342 95.5324C139.335 97.6471 137.782 99.7598 134.679 101.371C128.431 104.619 118.267 104.619 111.98 101.371C108.811 99.737 107.23 97.5891 107.236 95.4474" fill="white"/>
</mask>
<g mask="url(#mask1)">
<path fill-rule="evenodd" clip-rule="evenodd" d="M139.341 95.6593L139.331 98.5957C139.322 98.8713 139.287 99.1459 139.226 99.4205L139.235 96.482C139.296 96.2095 139.331 95.9339 139.341 95.6593Z" fill="#250F8A"/>
</g>
<path fill-rule="evenodd" clip-rule="evenodd" d="M139.235 96.4823L139.226 99.4208C139.165 99.6913 139.078 99.9607 138.966 100.228L138.976 97.2905C139.087 97.0242 139.174 96.7548 139.235 96.4823Z" fill="#250F8A"/>
<path fill-rule="evenodd" clip-rule="evenodd" d="M138.976 97.2908L138.966 100.228C138.851 100.505 138.708 100.776 138.539 101.045L138.548 98.1073C138.717 97.8379 138.86 97.5654 138.976 97.2908Z" fill="#250F8A"/>
<path fill-rule="evenodd" clip-rule="evenodd" d="M138.548 98.1074L138.539 101.045C138.355 101.336 138.139 101.622 137.893 101.903L137.902 98.9664C138.149 98.6846 138.364 98.3996 138.548 98.1074Z" fill="#250F8A"/>
<path fill-rule="evenodd" clip-rule="evenodd" d="M137.902 98.9661L137.892 101.902C137.604 102.229 137.273 102.55 136.897 102.86L136.907 99.9224C137.282 99.6126 137.613 99.2935 137.902 98.9661Z" fill="#250F8A"/>
<path fill-rule="evenodd" clip-rule="evenodd" d="M136.906 99.9224L136.898 102.86C136.322 103.335 135.645 103.786 134.865 104.207L134.875 101.269C135.653 100.85 136.331 100.398 136.906 99.9224Z" fill="#250F8A"/>
<path fill-rule="evenodd" clip-rule="evenodd" d="M134.874 101.269L134.865 104.206C134.801 104.241 134.735 104.275 134.669 104.31C133.599 104.866 132.414 105.326 131.155 105.693L131.163 102.756C132.423 102.389 133.609 101.928 134.678 101.371C134.746 101.337 134.809 101.303 134.874 101.269Z" fill="#250F8A"/>
<path fill-rule="evenodd" clip-rule="evenodd" d="M131.163 102.756L131.154 105.693C130.18 105.975 129.161 106.201 128.115 106.369L128.123 103.432C129.17 103.263 130.189 103.038 131.163 102.756Z" fill="#250F8A"/>
<path fill-rule="evenodd" clip-rule="evenodd" d="M128.124 103.433L128.115 106.369C127.442 106.477 126.758 106.563 126.068 106.625L126.076 103.687C126.767 103.627 127.452 103.541 128.124 103.433Z" fill="#250F8A"/>
<path fill-rule="evenodd" clip-rule="evenodd" d="M126.076 103.686L126.068 106.625C125.477 106.677 124.883 106.712 124.288 106.73L124.296 103.794C124.893 103.775 125.486 103.739 126.076 103.686Z" fill="#250F8A"/>
<path fill-rule="evenodd" clip-rule="evenodd" d="M124.296 103.794L124.287 106.73C123.739 106.748 123.19 106.75 122.642 106.738L122.651 103.801C123.199 103.814 123.748 103.811 124.296 103.794Z" fill="#250F8A"/>
<path fill-rule="evenodd" clip-rule="evenodd" d="M122.652 103.801L122.642 106.737C122.114 106.726 121.586 106.7 121.061 106.663L121.071 103.725C121.595 103.763 122.123 103.788 122.652 103.801Z" fill="#250F8A"/>
<path fill-rule="evenodd" clip-rule="evenodd" d="M121.071 103.725L121.061 106.663C120.538 106.624 120.017 106.571 119.5 106.506L119.509 103.568C120.026 103.634 120.547 103.686 121.071 103.725Z" fill="#250F8A"/>
<path fill-rule="evenodd" clip-rule="evenodd" d="M119.51 103.568L119.501 106.505C118.964 106.437 118.433 106.355 117.909 106.258L117.917 103.321C118.442 103.418 118.972 103.5 119.51 103.568Z" fill="#250F8A"/>
<path fill-rule="evenodd" clip-rule="evenodd" d="M117.918 103.321L117.908 106.258C117.341 106.153 116.783 106.03 116.235 105.891L116.244 102.954C116.792 103.093 117.35 103.215 117.918 103.321Z" fill="#250F8A"/>
<path fill-rule="evenodd" clip-rule="evenodd" d="M116.244 102.954L116.234 105.892C115.566 105.721 114.914 105.524 114.286 105.303L114.294 102.366C114.923 102.587 115.574 102.784 116.244 102.954Z" fill="#250F8A"/>
<path fill-rule="evenodd" clip-rule="evenodd" d="M114.295 102.365L114.285 105.302C113.471 105.014 112.695 104.684 111.97 104.31C108.802 102.674 107.221 100.527 107.227 98.3819L107.236 95.4465C107.229 97.5893 108.811 99.7362 111.979 101.371C112.704 101.745 113.479 102.078 114.295 102.365Z" fill="#250F8A"/>
<path fill-rule="evenodd" clip-rule="evenodd" d="M130.677 99.819H137.747C140.78 96.7241 139.766 92.8517 134.692 90.267C131.192 88.4836 126.504 87.6895 121.949 87.8778L115.827 92.2531L130.677 99.819Z" fill="#02ECF1"/>
<path fill-rule="evenodd" clip-rule="evenodd" d="M130.677 99.8191L115.827 92.2532L121.949 87.8779C118.262 88.0291 114.663 88.821 111.851 90.263C105.567 93.4875 105.601 98.7144 111.933 101.941C118.257 105.164 128.482 105.164 134.766 101.941C136.012 101.303 136.998 100.583 137.747 99.8191H130.677Z" fill="#02ECF1"/>
<path fill-rule="evenodd" clip-rule="evenodd" d="M130.783 66.7775L132.925 65.678L132.819 98.7205L130.678 99.8189L130.783 66.7775Z" fill="#4F34CE"/>
<path fill-rule="evenodd" clip-rule="evenodd" d="M115.934 59.208L118.075 58.1095L132.926 65.6774L130.783 66.7769L115.934 59.208Z" fill="#263543"/>
<path fill-rule="evenodd" clip-rule="evenodd" d="M130.783 66.7773L130.678 99.8188L115.827 92.2529L115.933 59.2084L130.783 66.7773Z" fill="#250F8A"/>
<path fill-rule="evenodd" clip-rule="evenodd" d="M75.6487 6.08514C75.6533 6.08514 75.658 6.08411 75.6615 6.08309C75.5729 6.10057 75.4972 6.1376 75.4145 6.16331C75.4925 6.13965 75.5648 6.1016 75.6487 6.08514ZM77.0131 6.18594C77.0155 6.18594 77.0166 6.18697 77.0178 6.18697C76.9362 6.16332 76.8628 6.15817 76.7824 6.14172C76.8605 6.15817 76.9339 6.16332 77.0131 6.18594ZM76.307 6.05315H76.3187C76.2255 6.04698 76.1416 6.06241 76.053 6.06343C76.1381 6.06241 76.2173 6.04698 76.307 6.05315ZM172.361 107.637C172.387 107.583 172.405 107.516 172.427 107.459C172.392 107.548 172.369 107.652 172.325 107.733C172.341 107.706 172.347 107.667 172.361 107.637ZM172.171 107.946C172.105 108.038 172.048 108.14 171.971 108.217C172.048 108.14 172.105 108.038 172.171 107.946ZM176.345 56.6934C176.335 56.5494 176.319 56.4043 176.296 56.2573C176.292 56.2305 176.285 56.2048 176.281 56.1781C176.276 56.1575 176.271 56.1349 176.268 56.1133C176.254 56.0423 176.243 55.9724 176.227 55.9024C176.202 55.7975 176.176 55.6905 176.144 55.5877C176.119 55.4941 176.088 55.4015 176.057 55.309C176.057 55.3079 176.056 55.3048 176.056 55.3038L176.052 55.2946C176.022 55.203 175.988 55.1125 175.952 55.021C175.917 54.9315 175.88 54.843 175.841 54.7546C175.803 54.6672 175.762 54.5808 175.72 54.4944C175.715 54.4861 175.712 54.4779 175.707 54.4687C175.704 54.4635 175.7 54.4573 175.698 54.4512C175.662 54.3792 175.626 54.3082 175.588 54.2372C175.542 54.1508 175.494 54.0655 175.445 53.9811C175.394 53.8937 175.341 53.8073 175.287 53.7219C175.274 53.7024 175.259 53.6818 175.246 53.6613C175.238 53.6489 175.229 53.6366 175.221 53.6253C175.185 53.5697 175.149 53.5131 175.111 53.4586C175.048 53.3671 174.981 53.2766 174.913 53.1861C174.839 53.0894 174.763 52.9927 174.685 52.8991C174.682 52.896 174.678 52.8919 174.675 52.8878C174.668 52.8785 174.659 52.8693 174.65 52.86C174.571 52.7654 174.492 52.6728 174.408 52.5823C174.288 52.4527 174.164 52.3273 174.037 52.2059C174.034 52.2038 174.03 52.2007 174.027 52.1987C173.868 52.0485 173.7 51.9189 173.531 51.7873C173.454 51.7235 173.38 51.6536 173.3 51.5949C173.047 51.4129 172.786 51.2514 172.518 51.1157L81.4002 4.67969C81.3361 4.6478 81.2744 4.61797 81.2115 4.58918C81.0623 4.52026 80.9143 4.46061 80.7698 4.41021C80.7302 4.39684 80.6918 4.38861 80.6522 4.37627C80.6288 4.36804 80.6055 4.36187 80.5822 4.35364C80.5368 4.34233 80.4914 4.32484 80.4471 4.31353C80.3539 4.29193 80.2618 4.27136 80.1721 4.25696C80.0894 4.24256 80.0078 4.23125 79.9286 4.22405C79.9192 4.22302 79.9099 4.22302 79.8994 4.22199H79.8773C79.819 4.21788 79.7619 4.21376 79.7048 4.21376C79.6349 4.21273 79.565 4.21479 79.4963 4.21891C79.431 4.22199 79.3634 4.22919 79.2993 4.2405C79.2807 4.24256 79.2644 4.24668 79.2457 4.25079C79.2364 4.25285 79.2271 4.25388 79.2189 4.25593C79.1828 4.26313 79.1455 4.26725 79.1106 4.27547C79.0476 4.29193 78.9871 4.30839 78.9276 4.32896C78.8682 4.3485 78.8088 4.37216 78.7517 4.39684C78.7202 4.41124 78.6899 4.42667 78.6596 4.44107C78.0654 4.74654 77.4699 5.05098 76.8757 5.35749C76.2803 5.66296 75.686 5.96843 75.0906 6.27288C75.0929 6.27082 75.0952 6.27082 75.0976 6.26979C74.4043 6.62155 73.972 7.37751 73.9685 8.45335L73.8158 56.0145C73.8112 57.547 74.6827 59.3058 75.947 60.5894C76.462 61.1129 77.0365 61.5675 77.6529 61.8802L168.771 108.317C169.331 108.602 169.86 108.744 170.341 108.77C170.902 108.801 171.382 108.653 171.763 108.368C171.679 108.43 171.603 108.505 171.509 108.553C171.687 108.46 171.867 108.37 172.045 108.278C172.099 108.25 172.17 108.214 172.223 108.188C172.7 107.943 173.175 107.698 173.651 107.454C174.068 107.241 174.484 107.027 174.901 106.814C174.954 106.786 175.026 106.749 175.08 106.721C175.77 106.367 176.198 105.614 176.201 104.543L176.354 56.9803C176.354 56.8857 176.35 56.79 176.345 56.6934Z" fill="#250F8A"/>
<mask id="mask2" mask-type="alpha" maskUnits="userSpaceOnUse" x="74" y="4" width="8" height="3">
<path fill-rule="evenodd" clip-rule="evenodd" d="M78.4216 4.43638C77.8205 4.74516 77.2183 5.05289 76.616 5.35959C76.0137 5.66629 75.4138 5.97403 74.8104 6.28072C75.5175 5.91911 76.497 5.97092 77.5813 6.52111L81.1925 4.67781C80.562 4.35764 79.968 4.20636 79.4411 4.20636C79.0616 4.20636 78.7175 4.28511 78.4216 4.43638Z" fill="white"/>
</mask>
<g mask="url(#mask2)">
<path fill-rule="evenodd" clip-rule="evenodd" d="M74.8106 6.28081L78.4207 4.43646C78.4513 4.42196 78.482 4.40642 78.5138 4.39398L74.9025 6.23729C74.8707 6.25179 74.8401 6.26526 74.8106 6.28081Z" fill="#1A242E"/>
</g>
<mask id="mask3" mask-type="alpha" maskUnits="userSpaceOnUse" x="74" y="4" width="8" height="3">
<path fill-rule="evenodd" clip-rule="evenodd" d="M78.4216 4.43638C77.8205 4.74516 77.2183 5.05289 76.616 5.35959C76.0137 5.66629 75.4138 5.97403 74.8104 6.28072C75.5175 5.91911 76.497 5.97092 77.5813 6.52111L81.1925 4.67781C80.562 4.35764 79.968 4.20636 79.4411 4.20636C79.0616 4.20636 78.7175 4.28511 78.4216 4.43638Z" fill="white"/>
</mask>
<g mask="url(#mask3)">
<path fill-rule="evenodd" clip-rule="evenodd" d="M74.902 6.24201L78.5133 4.3987C78.5711 4.37073 78.6312 4.34897 78.6925 4.32721L75.0812 6.17362C75.0211 6.19331 74.961 6.21714 74.902 6.24201Z" fill="#1B252F"/>
</g>
<mask id="mask4" mask-type="alpha" maskUnits="userSpaceOnUse" x="74" y="4" width="8" height="3">
<path fill-rule="evenodd" clip-rule="evenodd" d="M78.4216 4.43638C77.8205 4.74516 77.2183 5.05289 76.616 5.35959C76.0137 5.66629 75.4138 5.97403 74.8104 6.28072C75.5175 5.91911 76.497 5.97092 77.5813 6.52111L81.1925 4.67781C80.562 4.35764 79.968 4.20636 79.4411 4.20636C79.0616 4.20636 78.7175 4.28511 78.4216 4.43638Z" fill="white"/>
</mask>
<g mask="url(#mask4)">
<path fill-rule="evenodd" clip-rule="evenodd" d="M75.0817 6.17099L78.6917 4.32561C78.7519 4.30489 78.8143 4.28831 78.8768 4.2738L75.2655 6.11814C75.2031 6.13265 75.1418 6.15027 75.0817 6.17099Z" fill="#1C2631"/>
</g>
<mask id="mask5" mask-type="alpha" maskUnits="userSpaceOnUse" x="74" y="4" width="8" height="3">
<path fill-rule="evenodd" clip-rule="evenodd" d="M78.4216 4.43638C77.8205 4.74516 77.2183 5.05289 76.616 5.35959C76.0137 5.66629 75.4138 5.97403 74.8104 6.28072C75.5175 5.91911 76.497 5.97092 77.5813 6.52111L81.1925 4.67781C80.562 4.35764 79.968 4.20636 79.4411 4.20636C79.0616 4.20636 78.7175 4.28511 78.4216 4.43638Z" fill="white"/>
</mask>
<g mask="url(#mask5)">
<path fill-rule="evenodd" clip-rule="evenodd" d="M75.2657 6.11681L78.8758 4.27247C78.9395 4.25589 79.0031 4.24346 79.0679 4.23517L75.4567 6.07951C75.3919 6.08987 75.3282 6.10127 75.2657 6.11681Z" fill="#1D2732"/>
</g>
<mask id="mask6" mask-type="alpha" maskUnits="userSpaceOnUse" x="74" y="4" width="8" height="3">
<path fill-rule="evenodd" clip-rule="evenodd" d="M78.4216 4.43638C77.8205 4.74516 77.2183 5.05289 76.616 5.35959C76.0137 5.66629 75.4138 5.97403 74.8104 6.28072C75.5175 5.91911 76.497 5.97092 77.5813 6.52111L81.1925 4.67781C80.562 4.35764 79.968 4.20636 79.4411 4.20636C79.0616 4.20636 78.7175 4.28511 78.4216 4.43638Z" fill="white"/>
</mask>
<g mask="url(#mask6)">
<path fill-rule="evenodd" clip-rule="evenodd" d="M75.4563 6.0785L79.0676 4.23416C79.1324 4.22484 79.2008 4.21758 79.2668 4.2124L75.6567 6.05674C75.5883 6.06089 75.5223 6.06918 75.4563 6.0785Z" fill="#1D2934"/>
</g>
<mask id="mask7" mask-type="alpha" maskUnits="userSpaceOnUse" x="74" y="4" width="8" height="3">
<path fill-rule="evenodd" clip-rule="evenodd" d="M78.4216 4.43638C77.8205 4.74516 77.2183 5.05289 76.616 5.35959C76.0137 5.66629 75.4138 5.97403 74.8104 6.28072C75.5175 5.91911 76.497 5.97092 77.5813 6.52111L81.1925 4.67781C80.562 4.35764 79.968 4.20636 79.4411 4.20636C79.0616 4.20636 78.7175 4.28511 78.4216 4.43638Z" fill="white"/>
</mask>
<g mask="url(#mask7)">
<path fill-rule="evenodd" clip-rule="evenodd" d="M75.6571 6.05698L79.2672 4.21264C79.3367 4.20746 79.4075 4.20642 79.4782 4.20642L75.8681 6.05076C75.7962 6.05076 75.7266 6.0518 75.6571 6.05698Z" fill="#1E2A35"/>
</g>
<mask id="mask8" mask-type="alpha" maskUnits="userSpaceOnUse" x="74" y="4" width="8" height="3">
<path fill-rule="evenodd" clip-rule="evenodd" d="M78.4216 4.43638C77.8205 4.74516 77.2183 5.05289 76.616 5.35959C76.0137 5.66629 75.4138 5.97403 74.8104 6.28072C75.5175 5.91911 76.497 5.97092 77.5813 6.52111L81.1925 4.67781C80.562 4.35764 79.968 4.20636 79.4411 4.20636C79.0616 4.20636 78.7175 4.28511 78.4216 4.43638Z" fill="white"/>
</mask>
<g mask="url(#mask8)">
<path fill-rule="evenodd" clip-rule="evenodd" d="M75.8678 6.05088L79.4779 4.20654C79.5522 4.20758 79.6276 4.21276 79.7042 4.21794L76.0929 6.06332C76.0163 6.0571 75.9421 6.05192 75.8678 6.05088Z" fill="#1F2B37"/>
</g>
<mask id="mask9" mask-type="alpha" maskUnits="userSpaceOnUse" x="74" y="4" width="8" height="3">
<path fill-rule="evenodd" clip-rule="evenodd" d="M78.4216 4.43638C77.8205 4.74516 77.2183 5.05289 76.616 5.35959C76.0137 5.66629 75.4138 5.97403 74.8104 6.28072C75.5175 5.91911 76.497 5.97092 77.5813 6.52111L81.1925 4.67781C80.562 4.35764 79.968 4.20636 79.4411 4.20636C79.0616 4.20636 78.7175 4.28511 78.4216 4.43638Z" fill="white"/>
</mask>
<g mask="url(#mask9)">
<path fill-rule="evenodd" clip-rule="evenodd" d="M76.0934 6.06364L79.7035 4.2193C79.7848 4.22655 79.8673 4.23691 79.9498 4.25038L76.3385 6.09472C76.256 6.08229 76.1735 6.07089 76.0934 6.06364Z" fill="#202C38"/>
</g>
<mask id="mask10" mask-type="alpha" maskUnits="userSpaceOnUse" x="74" y="4" width="8" height="3">
<path fill-rule="evenodd" clip-rule="evenodd" d="M78.4216 4.43638C77.8205 4.74516 77.2183 5.05289 76.616 5.35959C76.0137 5.66629 75.4138 5.97403 74.8104 6.28072C75.5175 5.91911 76.497 5.97092 77.5813 6.52111L81.1925 4.67781C80.562 4.35764 79.968 4.20636 79.4411 4.20636C79.0616 4.20636 78.7175 4.28511 78.4216 4.43638Z" fill="white"/>
</mask>
<g mask="url(#mask10)">
<path fill-rule="evenodd" clip-rule="evenodd" d="M76.3391 6.09623L79.9504 4.25189C80.0423 4.26743 80.1342 4.28712 80.2285 4.30992L76.6173 6.15529C76.523 6.13146 76.4299 6.11385 76.3391 6.09623Z" fill="#212D3A"/>
</g>
<path fill-rule="evenodd" clip-rule="evenodd" d="M78.4216 4.43638C77.8205 4.74516 77.2183 5.05289 76.616 5.35959C76.0137 5.66629 75.4138 5.97403 74.8104 6.28072C75.5175 5.91911 76.497 5.97092 77.5813 6.52111L81.1925 4.67781C80.562 4.35764 79.968 4.20636 79.4411 4.20636C79.0616 4.20636 78.7175 4.28511 78.4216 4.43638Z" fill="#250F8A"/>
<mask id="mask11" mask-type="alpha" maskUnits="userSpaceOnUse" x="74" y="4" width="8" height="3">
<path fill-rule="evenodd" clip-rule="evenodd" d="M78.4216 4.43638C77.8205 4.74516 77.2183 5.05289 76.616 5.35959C76.0137 5.66629 75.4138 5.97403 74.8104 6.28072C75.5175 5.91911 76.497 5.97092 77.5813 6.52111L81.1925 4.67781C80.562 4.35764 79.968 4.20636 79.4411 4.20636C79.0616 4.20636 78.7175 4.28511 78.4216 4.43638Z" fill="white"/>
</mask>
<g mask="url(#mask11)">
<path fill-rule="evenodd" clip-rule="evenodd" d="M76.617 6.15751L80.2283 4.31317C80.3355 4.34011 80.4439 4.37223 80.5547 4.40953L76.9435 6.25491C76.8339 6.21865 76.7243 6.18445 76.617 6.15751Z" fill="#250F8A"/>
</g>
<path fill-rule="evenodd" clip-rule="evenodd" d="M76.944 6.25047L80.5541 4.40613C80.7014 4.45586 80.8499 4.51492 81.0019 4.58642L77.3907 6.43076C77.2398 6.3603 77.0913 6.3002 76.944 6.25047Z" fill="#250F8A"/>
<path fill-rule="evenodd" clip-rule="evenodd" d="M77.3912 6.4304L81.0013 4.58606C81.0661 4.61404 81.1274 4.64408 81.1934 4.67828L77.5809 6.52158C77.5173 6.4905 77.4548 6.45734 77.3912 6.4304Z" fill="#250F8A"/>
<mask id="mask12" mask-type="alpha" maskUnits="userSpaceOnUse" x="171" y="104" width="6" height="5">
<path fill-rule="evenodd" clip-rule="evenodd" d="M172.398 106.225C172.397 107.358 171.942 108.155 171.208 108.531C171.397 108.435 171.588 108.337 171.776 108.24C171.834 108.211 171.91 108.172 171.967 108.142C172.473 107.885 172.978 107.626 173.484 107.367C173.926 107.142 174.369 106.917 174.81 106.691C174.867 106.662 174.943 106.624 175.001 106.594C175.734 106.218 176.188 105.422 176.191 104.287" fill="white"/>
</mask>
<g mask="url(#mask12)">
<path fill-rule="evenodd" clip-rule="evenodd" d="M172.399 106.225L176.191 104.287C176.189 105.422 175.733 106.219 175.001 106.594L171.209 108.53C171.941 108.155 172.397 107.358 172.399 106.225Z" fill="#250F8A"/>
</g>
<path fill-rule="evenodd" clip-rule="evenodd" d="M172.785 58.6555L176.353 56.8296L176.202 104.264L172.632 106.091L172.785 58.6555Z" fill="#250F8A"/>
<path fill-rule="evenodd" clip-rule="evenodd" d="M77.8695 6.49479L81.4383 4.66992L172.52 50.981L168.95 52.8069L77.8695 6.49479Z" fill="#250F8A"/>
<mask id="mask13" mask-type="alpha" maskUnits="userSpaceOnUse" x="169" y="50" width="8" height="9">
<path fill-rule="evenodd" clip-rule="evenodd" d="M169.13 52.525C171.206 53.6171 172.878 56.2572 172.872 58.4321L176.354 56.5877C176.36 54.4129 174.688 51.7728 172.612 50.6807" fill="white"/>
</mask>
<g mask="url(#mask13)">
<path fill-rule="evenodd" clip-rule="evenodd" d="M169.13 52.5248L172.612 50.6804C173.14 50.9571 173.64 51.3342 174.094 51.7787L170.612 53.6231C170.158 53.1786 169.657 52.8024 169.13 52.5248Z" fill="#23313E"/>
</g>
<mask id="mask14" mask-type="alpha" maskUnits="userSpaceOnUse" x="169" y="50" width="8" height="9">
<path fill-rule="evenodd" clip-rule="evenodd" d="M169.13 52.525C171.206 53.6171 172.878 56.2572 172.872 58.4321L176.354 56.5877C176.36 54.4129 174.688 51.7728 172.612 50.6807" fill="white"/>
</mask>
<g mask="url(#mask14)">
<path fill-rule="evenodd" clip-rule="evenodd" d="M170.612 53.6228L174.093 51.7795C174.218 51.8997 174.339 52.0261 174.456 52.1577L170.974 54.002C170.858 53.8704 170.736 53.744 170.612 53.6228Z" fill="#22303D"/>
</g>
<mask id="mask15" mask-type="alpha" maskUnits="userSpaceOnUse" x="169" y="50" width="8" height="9">
<path fill-rule="evenodd" clip-rule="evenodd" d="M169.13 52.525C171.206 53.6171 172.878 56.2572 172.872 58.4321L176.354 56.5877C176.36 54.4129 174.688 51.7728 172.612 50.6807" fill="white"/>
</mask>
<g mask="url(#mask15)">
<path fill-rule="evenodd" clip-rule="evenodd" d="M170.974 54.002L174.455 52.1577C174.55 52.2613 174.639 52.3681 174.727 52.4768L171.245 54.3222C171.157 54.2124 171.067 54.1057 170.974 54.002Z" fill="#222E3B"/>
</g>
<mask id="mask16" mask-type="alpha" maskUnits="userSpaceOnUse" x="169" y="50" width="8" height="9">
<path fill-rule="evenodd" clip-rule="evenodd" d="M169.13 52.525C171.206 53.6171 172.878 56.2572 172.872 58.4321L176.354 56.5877C176.36 54.4129 174.688 51.7728 172.612 50.6807" fill="white"/>
</mask>
<g mask="url(#mask16)">
<path fill-rule="evenodd" clip-rule="evenodd" d="M171.244 54.3218L174.727 52.4775C174.803 52.5718 174.877 52.6671 174.948 52.7666L171.467 54.6109C171.396 54.5135 171.321 54.4161 171.244 54.3218Z" fill="#212D3A"/>
</g>
<mask id="mask17" mask-type="alpha" maskUnits="userSpaceOnUse" x="169" y="50" width="8" height="9">
<path fill-rule="evenodd" clip-rule="evenodd" d="M169.13 52.525C171.206 53.6171 172.878 56.2572 172.872 58.4321L176.354 56.5877C176.36 54.4129 174.688 51.7728 172.612 50.6807" fill="white"/>
</mask>
<g mask="url(#mask17)">
<path fill-rule="evenodd" clip-rule="evenodd" d="M171.467 54.6111L174.949 52.7667C175.015 52.8569 175.079 52.948 175.141 53.0392L171.66 54.8846C171.597 54.7924 171.533 54.7012 171.467 54.6111Z" fill="#202C38"/>
</g>
<mask id="mask18" mask-type="alpha" maskUnits="userSpaceOnUse" x="169" y="50" width="8" height="9">
<path fill-rule="evenodd" clip-rule="evenodd" d="M169.13 52.525C171.206 53.6171 172.878 56.2572 172.872 58.4321L176.354 56.5877C176.36 54.4129 174.688 51.7728 172.612 50.6807" fill="white"/>
</mask>
<g mask="url(#mask18)">
<path fill-rule="evenodd" clip-rule="evenodd" d="M171.659 54.8844L175.14 53.04C175.201 53.1281 175.258 53.2162 175.313 53.3063L171.83 55.1507C171.775 55.0605 171.718 54.9725 171.659 54.8844Z" fill="#1F2B37"/>
</g>
<mask id="mask19" mask-type="alpha" maskUnits="userSpaceOnUse" x="169" y="50" width="8" height="9">
<path fill-rule="evenodd" clip-rule="evenodd" d="M169.13 52.525C171.206 53.6171 172.878 56.2572 172.872 58.4321L176.354 56.5877C176.36 54.4129 174.688 51.7728 172.612 50.6807" fill="white"/>
</mask>
<g mask="url(#mask19)">
<path fill-rule="evenodd" clip-rule="evenodd" d="M171.83 55.1507L175.313 53.3064C175.366 53.3924 175.417 53.4794 175.467 53.5675L171.985 55.4108C171.936 55.3238 171.884 55.2357 171.83 55.1507Z" fill="#1E2A35"/>
</g>
<mask id="mask20" mask-type="alpha" maskUnits="userSpaceOnUse" x="169" y="50" width="8" height="9">
<path fill-rule="evenodd" clip-rule="evenodd" d="M169.13 52.525C171.206 53.6171 172.878 56.2572 172.872 58.4321L176.354 56.5877C176.36 54.4129 174.688 51.7728 172.612 50.6807" fill="white"/>
</mask>
<g mask="url(#mask20)">
<path fill-rule="evenodd" clip-rule="evenodd" d="M171.985 55.4107L175.467 53.5674C175.515 53.6523 175.562 53.7373 175.607 53.8243L172.126 55.6697C172.08 55.5817 172.034 55.4957 171.985 55.4107Z" fill="#1D2934"/>
</g>
<mask id="mask21" mask-type="alpha" maskUnits="userSpaceOnUse" x="169" y="50" width="8" height="9">
<path fill-rule="evenodd" clip-rule="evenodd" d="M169.13 52.525C171.206 53.6171 172.878 56.2572 172.872 58.4321L176.354 56.5877C176.36 54.4129 174.688 51.7728 172.612 50.6807" fill="white"/>
</mask>
<g mask="url(#mask21)">
<path fill-rule="evenodd" clip-rule="evenodd" d="M172.125 55.6696L175.606 53.8242C175.653 53.9102 175.695 53.9973 175.736 54.0833L172.253 55.9276C172.213 55.8416 172.169 55.7556 172.125 55.6696Z" fill="#1D2732"/>
</g>
<mask id="mask22" mask-type="alpha" maskUnits="userSpaceOnUse" x="169" y="50" width="8" height="9">
<path fill-rule="evenodd" clip-rule="evenodd" d="M169.13 52.525C171.206 53.6171 172.878 56.2572 172.872 58.4321L176.354 56.5877C176.36 54.4129 174.688 51.7728 172.612 50.6807" fill="white"/>
</mask>
<g mask="url(#mask22)">
<path fill-rule="evenodd" clip-rule="evenodd" d="M172.254 55.9276L175.735 54.0833C175.777 54.1703 175.817 54.2584 175.854 54.3464L172.371 56.1918C172.335 56.1027 172.295 56.0157 172.254 55.9276Z" fill="#1C2631"/>
</g>
<mask id="mask23" mask-type="alpha" maskUnits="userSpaceOnUse" x="169" y="50" width="8" height="9">
<path fill-rule="evenodd" clip-rule="evenodd" d="M169.13 52.525C171.206 53.6171 172.878 56.2572 172.872 58.4321L176.354 56.5877C176.36 54.4129 174.688 51.7728 172.612 50.6807" fill="white"/>
</mask>
<g mask="url(#mask23)">
<path fill-rule="evenodd" clip-rule="evenodd" d="M172.371 56.1917L175.854 54.3463C175.892 54.4354 175.927 54.5245 175.962 54.6136L172.48 56.459C172.446 56.3689 172.411 56.2798 172.371 56.1917Z" fill="#1B252F"/>
</g>
<mask id="mask24" mask-type="alpha" maskUnits="userSpaceOnUse" x="169" y="50" width="8" height="9">
<path fill-rule="evenodd" clip-rule="evenodd" d="M169.13 52.525C171.206 53.6171 172.878 56.2572 172.872 58.4321L176.354 56.5877C176.36 54.4129 174.688 51.7728 172.612 50.6807" fill="white"/>
</mask>
<g mask="url(#mask24)">
<path fill-rule="evenodd" clip-rule="evenodd" d="M172.48 56.4591L175.962 54.6137C175.997 54.7059 176.03 54.7981 176.06 54.8904L172.577 56.7357C172.548 56.6425 172.515 56.5503 172.48 56.4591Z" fill="#1A242E"/>
</g>
<mask id="mask25" mask-type="alpha" maskUnits="userSpaceOnUse" x="169" y="50" width="8" height="9">
<path fill-rule="evenodd" clip-rule="evenodd" d="M169.13 52.525C171.206 53.6171 172.878 56.2572 172.872 58.4321L176.354 56.5877C176.36 54.4129 174.688 51.7728 172.612 50.6807" fill="white"/>
</mask>
<g mask="url(#mask25)">
<path fill-rule="evenodd" clip-rule="evenodd" d="M172.578 56.7352L176.06 54.8909C176.093 54.9872 176.123 55.0857 176.15 55.1841L172.669 57.0284C172.641 56.93 172.611 56.8336 172.578 56.7352Z" fill="#19232C"/>
</g>
<mask id="mask26" mask-type="alpha" maskUnits="userSpaceOnUse" x="169" y="50" width="8" height="9">
<path fill-rule="evenodd" clip-rule="evenodd" d="M169.13 52.525C171.206 53.6171 172.878 56.2572 172.872 58.4321L176.354 56.5877C176.36 54.4129 174.688 51.7728 172.612 50.6807" fill="white"/>
</mask>
<g mask="url(#mask26)">
<path fill-rule="evenodd" clip-rule="evenodd" d="M172.668 57.0288L176.149 55.1844C176.18 55.2901 176.206 55.3958 176.23 55.5015L172.748 57.3469C172.725 57.2412 172.697 57.1355 172.668 57.0288Z" fill="#18222B"/>
</g>
<mask id="mask27" mask-type="alpha" maskUnits="userSpaceOnUse" x="169" y="50" width="8" height="9">
<path fill-rule="evenodd" clip-rule="evenodd" d="M169.13 52.525C171.206 53.6171 172.878 56.2572 172.872 58.4321L176.354 56.5877C176.36 54.4129 174.688 51.7728 172.612 50.6807" fill="white"/>
</mask>
<g mask="url(#mask27)">
<path fill-rule="evenodd" clip-rule="evenodd" d="M172.748 57.3464L176.23 55.5021C176.256 55.6212 176.279 55.7394 176.297 55.8585L172.816 57.7039C172.796 57.5847 172.775 57.4656 172.748 57.3464Z" fill="#182029"/>
</g>
<path fill-rule="evenodd" clip-rule="evenodd" d="M169.13 52.525C171.206 53.6171 172.878 56.2572 172.872 58.4321L176.354 56.5877C176.36 54.4129 174.688 51.7728 172.612 50.6807" fill="#250F8A"/>
<mask id="mask28" mask-type="alpha" maskUnits="userSpaceOnUse" x="169" y="50" width="8" height="9">
<path fill-rule="evenodd" clip-rule="evenodd" d="M169.13 52.525C171.206 53.6171 172.878 56.2572 172.872 58.4321L176.354 56.5877C176.36 54.4129 174.688 51.7728 172.612 50.6807" fill="white"/>
</mask>
<g mask="url(#mask28)">
<path fill-rule="evenodd" clip-rule="evenodd" d="M172.815 57.7035L176.297 55.8592C176.319 56.0063 176.335 56.1535 176.345 56.3006L172.863 58.1449C172.854 57.9988 172.838 57.8517 172.815 57.7035Z" fill="#250F8A"/>
</g>
<path fill-rule="evenodd" clip-rule="evenodd" d="M172.863 58.1446L176.345 56.3002C176.351 56.3966 176.353 56.4919 176.353 56.5872L172.872 58.4316C172.872 58.3383 172.869 58.2409 172.863 58.1446Z" fill="#250F8A"/>
<path fill-rule="evenodd" clip-rule="evenodd" d="M168.909 53.0874C171.037 54.1685 172.75 56.7833 172.743 58.9354L172.591 106.371C172.584 108.523 170.859 109.389 168.732 108.307L77.6499 61.9953C75.5231 60.9141 73.8086 58.2984 73.8156 56.1463L73.9682 8.71088C73.9751 6.55981 75.7013 5.69302 77.8281 6.77523L168.909 53.0874Z" fill="#0AD7DD"/>
<path fill-rule="evenodd" clip-rule="evenodd" d="M168.348 56.7946L80.6178 12.1863L80.4967 55.2713L168.209 99.8632L168.348 56.7946ZM111.95 39.1534L111.973 32.016L163.753 58.3438L163.729 65.4812L111.95 39.1534ZM84.472 25.1821L84.4953 18.0447L107.239 29.6084L107.217 36.7469L107.12 66.5562L84.3753 54.9894L84.472 25.1821ZM111.853 68.9606L111.95 39.1533L163.729 65.4811L163.633 95.2894L111.853 68.9606Z" fill="white"/>
<path fill-rule="evenodd" clip-rule="evenodd" d="M126.929 82.9703L119.475 79.181L119.469 81.0644L126.923 84.8546L126.929 82.9703Z" fill="#250F8A"/>
<path fill-rule="evenodd" clip-rule="evenodd" d="M107.239 29.6085L84.4949 18.0449L84.4728 25.1823L107.217 36.747L107.239 29.6085ZM101.732 32.4509L101.746 28.316L105.832 30.3942L105.818 34.5281L101.732 32.4509ZM96.2053 29.6412L96.2181 25.5053L100.304 27.5825L100.291 31.7185L96.2053 29.6412ZM90.6774 26.8295L90.6902 22.6946L94.7761 24.7718L94.7633 28.9067L90.6774 26.8295Z" fill="#FA7564"/>
<path fill-rule="evenodd" clip-rule="evenodd" d="M107.217 36.7469L84.4727 25.1822L84.376 54.9895L107.12 66.5562L107.217 36.7469ZM85.7318 36.1704L85.7539 29.2084L105.803 39.4037L105.781 46.3637L85.7318 36.1704ZM85.677 53.0239L85.684 51.238L105.732 61.4312L105.726 63.2181L85.677 53.0239Z" fill="#E5FDFD"/>
<path fill-rule="evenodd" clip-rule="evenodd" d="M163.729 65.481L111.949 39.1532L111.852 68.9615L163.632 95.2903L163.729 65.481ZM113.364 50.2191L113.386 43.2592L162.283 68.1211L162.26 75.0821L113.364 50.2191ZM113.351 53.793L113.357 52.0061L162.255 76.8691L162.249 78.655L113.351 53.793ZM113.341 57.371L113.347 55.5851L162.243 80.4471L162.237 82.234L113.341 57.371ZM113.312 66.1855L113.334 59.2225L162.231 84.0854L162.209 91.0464L113.312 66.1855Z" fill="#E5FDFD"/>
<path fill-rule="evenodd" clip-rule="evenodd" d="M163.752 58.3436L111.972 32.0158L111.949 39.1532L163.729 65.481L163.752 58.3436ZM158.212 61.1694L158.226 57.0344L162.312 59.1117L162.299 63.2466L158.212 61.1694ZM152.685 58.3589L152.698 54.224L156.784 56.3022L156.77 60.4361L152.685 58.3589ZM147.157 55.548L147.17 51.412L151.256 53.4903L151.242 57.6252L147.157 55.548Z" fill="#FA7564"/>
<path fill-rule="evenodd" clip-rule="evenodd" d="M162.312 59.1116L158.226 57.0344L158.212 61.1694L162.299 63.2466L162.312 59.1116Z" fill="#FFCA00"/>
<path fill-rule="evenodd" clip-rule="evenodd" d="M156.784 56.3021L152.698 54.2249L152.684 58.3588L156.77 60.436L156.784 56.3021Z" fill="white"/>
<path fill-rule="evenodd" clip-rule="evenodd" d="M151.255 53.4899L147.169 51.4127L147.157 55.5487L151.242 57.6249L151.255 53.4899Z" fill="white"/>
<path fill-rule="evenodd" clip-rule="evenodd" d="M105.832 30.3938L101.746 28.3166L101.732 32.4515L105.818 34.5277L105.832 30.3938Z" fill="#FFCA00"/>
<path fill-rule="evenodd" clip-rule="evenodd" d="M100.305 27.5828L96.2186 25.5056L96.2046 29.6415L100.291 31.7177L100.305 27.5828Z" fill="white"/>
<path fill-rule="evenodd" clip-rule="evenodd" d="M94.7765 24.772L90.6894 22.6948L90.6766 26.8298L94.7625 28.907L94.7765 24.772Z" fill="white"/>
<path fill-rule="evenodd" clip-rule="evenodd" d="M105.803 39.4035L85.7541 29.2093L85.732 36.1713L105.78 46.3635L105.803 39.4035Z" fill="white"/>
<path fill-rule="evenodd" clip-rule="evenodd" d="M162.283 68.1214L113.387 43.2594L113.364 50.2194L162.26 75.0823L162.283 68.1214Z" fill="white"/>
<path fill-rule="evenodd" clip-rule="evenodd" d="M162.232 84.0852L113.334 59.2232L113.312 66.1852L162.208 91.0461L162.232 84.0852Z" fill="white"/>
<path fill-rule="evenodd" clip-rule="evenodd" d="M105.732 61.4317L85.6841 51.2375L85.6771 53.0244L105.726 63.2176L105.732 61.4317Z" fill="#FFCA00"/>
<path fill-rule="evenodd" clip-rule="evenodd" d="M162.254 76.8687L113.358 52.0067L113.351 53.7936L162.249 78.6546L162.254 76.8687Z" fill="#FFCA00"/>
<path fill-rule="evenodd" clip-rule="evenodd" d="M162.242 80.4469L113.346 55.5849L113.341 57.3708L162.238 82.2338L162.242 80.4469Z" fill="#FFCA00"/>
<path fill-rule="evenodd" clip-rule="evenodd" d="M80.5351 55.1291L78.2554 56.1135L78.3997 10.8218L80.6561 11.9716L80.5351 55.1291Z" fill="#172029"/>
<path fill-rule="evenodd" clip-rule="evenodd" d="M168.169 99.7969L168.162 101.947L78.2549 56.1132L80.5346 55.1288L168.169 99.7969Z" fill="#263442"/>
</svg>
